<svg id="Capa_1" enable-background="new 0 0 512 512" height="512" viewBox="0 0 512 512" width="512" xmlns="http://www.w3.org/2000/svg" xmlns:xlink="http://www.w3.org/1999/xlink"><linearGradient id="SVGID_1_" gradientUnits="userSpaceOnUse" x1="256" x2="256" y1="469.799" y2="42.201"><stop offset="0" stop-color="#00b59c"/><stop offset="1" stop-color="#9cffac"/></linearGradient><linearGradient id="SVGID_2_" gradientUnits="userSpaceOnUse" x1="256" x2="256" y1="512" y2="0"><stop offset="0" stop-color="#c3ffe8"/><stop offset=".9973" stop-color="#f0fff4"/></linearGradient><g id="Globe_2_"><g><g><path d="m130.201 87.201c0-24.935-20.235-45-45-45-24.62 0-45 20.331-45 45 0 8.399 2.399 16.199 6.599 23.099l-8.399 38.701 31.5-19.501c4.799 1.8 9.899 2.701 15.3 2.701 25.503 0 45-20.417 45-45zm343.398 275.798-31.5 19.501c-4.799-1.8-9.899-2.701-15.3-2.701-25.503 0-45 20.417-45 45 0 24.935 20.235 45 45 45 24.62 0 45-20.331 45-45 0-8.399-2.399-16.199-6.599-23.099zm-217.599-256.999c-82.705 0-150 67.295-150 150s67.295 150 150 150 150-67.295 150-150-67.295-150-150-150z" fill="url(#SVGID_1_)"/></g></g><g><g><path d="m339.3 465.801c-26.701 10.799-55.201 16.199-84.3 16.199-124.2 0-225-100.8-225-225 0-46.199 13.5-90 39.901-127.5-9.948-3.482-18.631-11.008-23.101-19.2-30.601 42.899-46.8 93.299-46.8 146.7 0 140.7 114.3 255 255 255 32.999 0 65.099-6.301 95.7-18.6 7.5-2.999 11.4-11.7 8.101-19.501-3.001-7.8-11.701-11.4-19.501-8.098zm-82.3-465.801c-32.999 0-65.099 6.301-95.7 18.6-7.5 2.999-11.4 11.7-8.101 19.501 3.001 7.5 11.7 11.4 19.501 8.099 26.701-10.8 55.201-16.2 84.3-16.2 124.2 0 225 100.8 225 225 0 46.199-13.5 90-39.901 127.5 9.948 3.482 18.631 11.008 23.101 19.2 30.601-42.9 46.8-93.3 46.8-146.7 0-140.7-114.3-255-255-255zm-1 91c-90.967 0-165 74.019-165 165s74.033 165 165 165 165-74.019 165-165-74.033-165-165-165zm-133.484 180h58.792c1.661 40.86 10.1 81.495 24.749 110.169-45.239-18.118-77.899-60.018-83.541-110.169zm58.792-30h-58.792c5.641-50.151 38.302-92.051 83.54-110.169-14.648 28.674-23.088 69.309-24.748 110.169zm74.692 150c-17.173 0-41.354-46.472-44.399-120h88.799c-3.046 73.528-27.227 120-44.4 120zm-44.399-150c3.045-73.528 27.226-120 44.399-120s41.354 46.472 44.399 120zm94.343 140.169c14.648-28.674 23.088-69.309 24.749-110.169h58.792c-5.643 50.151-38.303 92.051-83.541 110.169zm24.748-140.169c-1.661-40.86-10.1-81.495-24.749-110.169 45.238 18.118 77.899 60.018 83.54 110.169z" fill="url(#SVGID_2_)"/></g></g></g></svg>